<mxfile host="app.diagrams.net" modified="2020-08-25T18:12:40.678Z" agent="5.0 (Windows NT 10.0; Win64; x64) AppleWebKit/537.36 (KHTML, like Gecko) Chrome/84.0.4147.135 Safari/537.36" etag="nkIa6mvZT2cWMN0IUJqJ" version="13.6.4" type="github">
  <diagram id="kxgBEVJCPQbhI56NlqeN" name="Page-1">
    <mxGraphModel dx="731" dy="417" grid="1" gridSize="10" guides="1" tooltips="1" connect="1" arrows="1" fold="1" page="1" pageScale="1" pageWidth="850" pageHeight="1100" math="0" shadow="0">
      <root>
        <mxCell id="0" />
        <mxCell id="1" parent="0" />
        <mxCell id="NgLl4HAQhnd8HXAotbS4-2" value="" style="edgeStyle=orthogonalEdgeStyle;rounded=0;orthogonalLoop=1;jettySize=auto;html=1;" parent="1" source="jKNY7_8_zjAuuIfCQ90G-1" target="NgLl4HAQhnd8HXAotbS4-1" edge="1">
          <mxGeometry relative="1" as="geometry" />
        </mxCell>
        <mxCell id="NgLl4HAQhnd8HXAotbS4-4" value="" style="edgeStyle=orthogonalEdgeStyle;rounded=0;orthogonalLoop=1;jettySize=auto;html=1;" parent="1" source="jKNY7_8_zjAuuIfCQ90G-1" target="NgLl4HAQhnd8HXAotbS4-3" edge="1">
          <mxGeometry relative="1" as="geometry" />
        </mxCell>
        <mxCell id="NgLl4HAQhnd8HXAotbS4-6" value="" style="edgeStyle=orthogonalEdgeStyle;rounded=0;orthogonalLoop=1;jettySize=auto;html=1;" parent="1" source="jKNY7_8_zjAuuIfCQ90G-1" target="NgLl4HAQhnd8HXAotbS4-5" edge="1">
          <mxGeometry relative="1" as="geometry" />
        </mxCell>
        <mxCell id="NgLl4HAQhnd8HXAotbS4-8" value="" style="edgeStyle=orthogonalEdgeStyle;rounded=0;orthogonalLoop=1;jettySize=auto;html=1;" parent="1" source="jKNY7_8_zjAuuIfCQ90G-1" target="NgLl4HAQhnd8HXAotbS4-7" edge="1">
          <mxGeometry relative="1" as="geometry" />
        </mxCell>
        <mxCell id="jKNY7_8_zjAuuIfCQ90G-1" value="Feedback" style="rhombus;whiteSpace=wrap;html=1;fillColor=none;" parent="1" vertex="1">
          <mxGeometry x="355" y="250" width="200" height="100" as="geometry" />
        </mxCell>
        <mxCell id="NgLl4HAQhnd8HXAotbS4-1" value="Chef" style="whiteSpace=wrap;html=1;align=center;" parent="1" vertex="1">
          <mxGeometry x="630" y="280" width="100" height="40" as="geometry" />
        </mxCell>
        <mxCell id="kzbOnNVxng_6eBCHzelk-9" value="" style="edgeStyle=orthogonalEdgeStyle;rounded=0;orthogonalLoop=1;jettySize=auto;html=1;" edge="1" parent="1" source="NgLl4HAQhnd8HXAotbS4-3" target="kzbOnNVxng_6eBCHzelk-8">
          <mxGeometry relative="1" as="geometry" />
        </mxCell>
        <mxCell id="kzbOnNVxng_6eBCHzelk-18" value="" style="edgeStyle=orthogonalEdgeStyle;rounded=0;orthogonalLoop=1;jettySize=auto;html=1;" edge="1" parent="1" source="NgLl4HAQhnd8HXAotbS4-3" target="kzbOnNVxng_6eBCHzelk-17">
          <mxGeometry relative="1" as="geometry" />
        </mxCell>
        <mxCell id="NgLl4HAQhnd8HXAotbS4-3" value="Table" style="whiteSpace=wrap;html=1;fillColor=none;" parent="1" vertex="1">
          <mxGeometry x="395" y="400" width="120" height="60" as="geometry" />
        </mxCell>
        <mxCell id="kzbOnNVxng_6eBCHzelk-11" value="" style="edgeStyle=orthogonalEdgeStyle;rounded=0;orthogonalLoop=1;jettySize=auto;html=1;" edge="1" parent="1" source="NgLl4HAQhnd8HXAotbS4-5" target="kzbOnNVxng_6eBCHzelk-10">
          <mxGeometry relative="1" as="geometry" />
        </mxCell>
        <mxCell id="kzbOnNVxng_6eBCHzelk-13" value="" style="edgeStyle=orthogonalEdgeStyle;rounded=0;orthogonalLoop=1;jettySize=auto;html=1;" edge="1" parent="1" source="NgLl4HAQhnd8HXAotbS4-5" target="kzbOnNVxng_6eBCHzelk-12">
          <mxGeometry relative="1" as="geometry" />
        </mxCell>
        <mxCell id="kzbOnNVxng_6eBCHzelk-24" value="" style="edgeStyle=orthogonalEdgeStyle;rounded=0;orthogonalLoop=1;jettySize=auto;html=1;" edge="1" parent="1" source="NgLl4HAQhnd8HXAotbS4-5" target="kzbOnNVxng_6eBCHzelk-23">
          <mxGeometry relative="1" as="geometry" />
        </mxCell>
        <mxCell id="NgLl4HAQhnd8HXAotbS4-5" value="Dish" style="whiteSpace=wrap;html=1;fillColor=none;" parent="1" vertex="1">
          <mxGeometry x="170" y="270" width="120" height="60" as="geometry" />
        </mxCell>
        <mxCell id="NgLl4HAQhnd8HXAotbS4-7" value="Waiter" style="whiteSpace=wrap;html=1;fillColor=none;" parent="1" vertex="1">
          <mxGeometry x="395" y="120" width="120" height="60" as="geometry" />
        </mxCell>
        <mxCell id="kzbOnNVxng_6eBCHzelk-1" value="Rating" style="ellipse;whiteSpace=wrap;html=1;align=center;" vertex="1" parent="1">
          <mxGeometry x="480" y="250" width="100" height="30" as="geometry" />
        </mxCell>
        <mxCell id="kzbOnNVxng_6eBCHzelk-5" value="Employee" style="whiteSpace=wrap;html=1;align=center;" vertex="1" parent="1">
          <mxGeometry x="630" y="90" width="100" height="40" as="geometry" />
        </mxCell>
        <mxCell id="kzbOnNVxng_6eBCHzelk-19" value="" style="edgeStyle=orthogonalEdgeStyle;rounded=0;orthogonalLoop=1;jettySize=auto;html=1;" edge="1" parent="1" source="kzbOnNVxng_6eBCHzelk-8" target="kzbOnNVxng_6eBCHzelk-15">
          <mxGeometry relative="1" as="geometry" />
        </mxCell>
        <mxCell id="kzbOnNVxng_6eBCHzelk-21" value="" style="edgeStyle=orthogonalEdgeStyle;rounded=0;orthogonalLoop=1;jettySize=auto;html=1;" edge="1" parent="1" source="kzbOnNVxng_6eBCHzelk-8" target="kzbOnNVxng_6eBCHzelk-20">
          <mxGeometry relative="1" as="geometry" />
        </mxCell>
        <mxCell id="kzbOnNVxng_6eBCHzelk-8" value="Table_key" style="ellipse;whiteSpace=wrap;html=1;fillColor=none;fontStyle=4" vertex="1" parent="1">
          <mxGeometry x="417.5" y="500" width="75" height="50" as="geometry" />
        </mxCell>
        <mxCell id="kzbOnNVxng_6eBCHzelk-10" value="Dish_name" style="ellipse;whiteSpace=wrap;html=1;fillColor=none;fontStyle=4" vertex="1" parent="1">
          <mxGeometry x="50" y="265" width="90" height="70" as="geometry" />
        </mxCell>
        <mxCell id="kzbOnNVxng_6eBCHzelk-12" value="&lt;u&gt;Dish_number&lt;/u&gt;" style="ellipse;whiteSpace=wrap;html=1;fillColor=none;" vertex="1" parent="1">
          <mxGeometry x="175" y="170" width="110" height="60" as="geometry" />
        </mxCell>
        <mxCell id="kzbOnNVxng_6eBCHzelk-15" value="Table_number" style="ellipse;whiteSpace=wrap;html=1;fillColor=none;" vertex="1" parent="1">
          <mxGeometry x="540" y="492.5" width="90" height="65" as="geometry" />
        </mxCell>
        <mxCell id="kzbOnNVxng_6eBCHzelk-17" value="Num_Customers" style="ellipse;whiteSpace=wrap;html=1;fillColor=none;" vertex="1" parent="1">
          <mxGeometry x="250" y="395" width="90" height="70" as="geometry" />
        </mxCell>
        <mxCell id="kzbOnNVxng_6eBCHzelk-20" value="Time" style="ellipse;whiteSpace=wrap;html=1;fillColor=none;" vertex="1" parent="1">
          <mxGeometry x="412.5" y="580" width="85" height="50" as="geometry" />
        </mxCell>
        <mxCell id="kzbOnNVxng_6eBCHzelk-23" value="Price" style="ellipse;whiteSpace=wrap;html=1;fillColor=none;" vertex="1" parent="1">
          <mxGeometry x="200" y="350" width="60" height="40" as="geometry" />
        </mxCell>
      </root>
    </mxGraphModel>
  </diagram>
</mxfile>
